<svg height="480pt" viewBox="-4 0 480 480" width="480pt" xmlns="http://www.w3.org/2000/svg"><path d="m332.085938 239.199219 125.761718-72.640625-48-83.199219-127.28125 73.519531v-148.878906h-96v147.199219l-124.402344-71.839844-48 83.199219 125.761719 72.640625-131.921875 76.160156 48 83.199219 130.5625-75.359375v148.800781h96v-150.480469l133.4375 77.039063 48-83.199219zm0 0" fill="#ebf0f6"/><g fill="#ebf0f6"><path d="m282.566406 480h-96c-4.417968 0-8-3.582031-8-8v-134.945312l-118.5625 68.441406c-1.84375 1.042968-4.019531 1.328125-6.070312.800781-2.050782-.546875-3.800782-1.890625-4.863282-3.730469l-48-83.199218c-2.207031-3.828126-.894531-8.722657 2.933594-10.925782l119.921875-69.242187-113.761719-65.703125c-1.835937-1.0625-3.179687-2.808594-3.730468-4.859375-.546875-2.054688-.257813-4.238281.804687-6.078125l48-83.199219c2.207031-3.824219 7.101563-5.136719 10.925781-2.925781l112.402344 64.910156v-133.34375c0-4.417969 3.582032-8 8-8h96c4.417969 0 8 3.582031 8 8v135.023438l115.28125-66.589844c3.824219-2.210938 8.71875-.898438 10.925782 2.925781l48 83.199219c1.0625 1.839844 1.351562 4.023437.804687 6.078125-.550781 2.050781-1.894531 3.796875-3.730469 4.859375l-113.761718 65.703125 119.917968 69.234375c3.828125 2.207031 5.140625 7.101562 2.929688 10.925781l-48 83.199219c-1.0625 1.839844-2.8125 3.179687-4.863282 3.730468-2.050781.53125-4.222656.242188-6.066406-.800781l-121.4375-70.105469v136.617188c0 4.417969-3.582031 8-8 8zm-88-16h80v-142.480469c0-2.859375 1.523438-5.5 4-6.925781 2.476563-1.429688 5.523438-1.429688 8 0l126.503906 73.039062 40-69.34375-124.984374-72.152343c-2.480469-1.429688-4.007813-4.070313-4.007813-6.933594 0-2.859375 1.527344-5.503906 4.007813-6.929687l118.839843-68.640626-40-69.34375-120.359375 69.527344c-2.476562 1.429688-5.527344 1.429688-8.003906-.003906-2.476562-1.429688-4-4.074219-3.996094-6.933594v-140.878906h-80v139.199219c.003906 2.859375-1.523437 5.503906-3.996094 6.933593-2.476562 1.433594-5.527343 1.433594-8.003906.003907l-117.472656-67.847657-40 69.34375 118.839844 68.640626c2.480468 1.425781 4.007812 4.070312 4.007812 6.929687 0 2.863281-1.527344 5.503906-4.007812 6.933594l-125 72.152343 40 69.34375 123.632812-71.359374c2.472656-1.429688 5.523438-1.429688 8 0 2.472656 1.425781 4 4.070312 4 6.925781zm0 0" fill="#ebf0f6"/><path d="m268.628906 198.816406-26.0625-2.417968v-13.871094c11.019532-3.894532 17.628906-15.164063 15.652344-26.683594-1.976562-11.523438-11.964844-19.941406-23.652344-19.941406-11.691406 0-21.679687 8.417968-23.65625 19.941406-1.976562 11.519531 4.636719 22.789062 15.65625 26.683594v12.394531l-31.265625-2.921875c-4.417969-.40625-8.328125 2.847656-8.734375 7.265625s2.84375 8.328125 7.261719 8.734375l32.738281 3v26.054688l-18.167968 1.65625c-12.390626 1.066406-21.886719 11.460937-21.832032 23.898437v3.070313c.003906 12.226562 9.199219 22.5 21.351563 23.847656l18.648437 2.082031v17.992187l-5.121094.726563c-10.824218 1.597656-18.851562 10.875-18.878906 21.816406-.058594 10.628907 7.554688 19.753907 18.023438 21.597657l5.976562 1.273437v12.984375c0 4.417969 3.582032 8 8 8 4.417969 0 8-3.582031 8-8v-9.527344l6.328125 1.351563c4.320313.921875 8.570313-1.832031 9.496094-6.152344.921875-4.320313-1.832031-8.574219-6.152344-9.496094l-9.671875-2.0625v-18.601562l13.457032-1.917969c10.835937-1.472656 18.863281-10.808594 18.691406-21.742188-.171875-10.9375-8.488282-20.015624-19.363282-21.148437l-12.785156-1.421875v-25.601562l26.167969-2.398438c12.386719-1.066406 21.882813-11.457031 21.832031-23.890625v-2.671875c-.0625-12.429688-9.558594-22.777344-21.9375-23.902344zm-34.0625-46.816406c4.417969 0 8 3.582031 8 8s-3.582031 8-8 8c-4.417968 0-8-3.582031-8-8s3.582032-8 8-8zm-8 186.703125-2.992187-.640625c-2.929688-.476562-5.066407-3.027344-5.03125-5.992188.035156-2.96875 2.234375-5.460937 5.175781-5.871093l2.847656-.398438zm27.015625-44.09375c2.867188.238281 5.085938 2.617187 5.128907 5.496094.042968 2.875-2.101563 5.320312-4.960938 5.648437l-11.199219 1.597656v-13.96875zm-27.015625-19.105469-16.878906-1.902344c-4.042969-.449218-7.105469-3.855468-7.121094-7.921874v-3.070313c.003906-4.136719 3.160156-7.589844 7.28125-7.960937l16.71875-1.519532zm48-50.113281c.015625 4.152344-3.144531 7.628906-7.28125 8l-24.71875 2.210937v-23.121093l24.664063 2.28125c4.171875.308593 7.386719 3.8125 7.335937 8zm0 0" fill="#ebf0f6"/></g></svg>