<svg height="481pt" viewBox="0 0 481.83952 481" width="481pt" xmlns="http://www.w3.org/2000/svg"><path d="m473.839844 179.84375-64-110.847656-104.921875 60.574218v-121.152343h-128v121.152343l-104.917969-60.574218-64 110.847656 104.917969 60.574219-104.917969 60.578125 64 110.847656 104.917969-60.574219v121.148438h128v-121.148438l104.921875 60.574219 64-110.847656-104.921875-60.578125zm0 0" fill="transparent"/><g><path d="m304.917969 480.417969h-128c-4.417969 0-8-3.578125-8-8v-107.292969l-92.917969 53.648438c-3.828125 2.207031-8.71875.894531-10.929688-2.929688l-64-110.847656c-2.207031-3.828125-.898437-8.71875 2.929688-10.929688l92.917969-53.648437-92.917969-53.644531c-3.828125-2.210938-5.136719-7.101563-2.929688-10.929688l64-110.847656c2.210938-3.828125 7.101563-5.136719 10.929688-2.929688l92.917969 53.648438v-107.296875c0-4.417969 3.582031-8 8-8h128c4.421875 0 8 3.582031 8 8v107.296875l92.921875-53.648438c3.824218-2.207031 8.71875-.898437 10.929687 2.929688l64 110.847656c2.207031 3.828125.894531 8.71875-2.929687 10.929688l-92.921875 53.644531 92.921875 53.648437c3.824218 2.210938 5.136718 7.101563 2.929687 10.929688l-64 110.847656c-2.210937 3.824219-7.105469 5.136719-10.929687 2.929688l-92.921875-53.648438v107.292969c0 4.421875-3.578125 8-8 8zm-120-16h112v-113.148438c0-2.859375 1.527343-5.5 4-6.929687 2.476562-1.429688 5.527343-1.429688 8 0l97.992187 56.574218 56-96.992187-97.992187-56.574219c-2.472657-1.429687-3.996094-4.070312-3.996094-6.929687 0-2.855469 1.523437-5.496094 3.996094-6.925781l97.992187-56.578126-56-96.992187-97.992187 56.578125c-2.472657 1.429688-5.523438 1.429688-8 0-2.472657-1.429688-4-4.070312-4-6.929688v-113.152343h-112v113.152343c0 2.859376-1.523438 5.5-4 6.929688-2.472657 1.429688-5.523438 1.429688-8 0l-97.988281-56.578125-56 96.992187 97.988281 56.578126c2.476562 1.429687 4 4.070312 4 6.925781 0 2.859375-1.523438 5.5-4 6.929687l-97.988281 56.574219 56 96.992187 97.988281-56.574218c2.476562-1.429688 5.527343-1.429688 8 0 2.476562 1.429687 4 4.070312 4 6.929687zm0 0" fill="#ebf0f6"/><path d="m272.917969 176.417969h-24v-9.46875c11.023437-3.898438 17.632812-15.167969 15.65625-26.6875-1.976563-11.519531-11.964844-19.941407-23.65625-19.941407-11.6875 0-21.675781 8.421876-23.652344 19.941407s4.632813 22.789062 15.652344 26.6875v9.46875h-24c-4.417969 0-8 3.582031-8 8 0 4.421875 3.582031 8 8 8h24v30.976562l-22.316407 6.089844c-10.429687 2.867187-17.664062 12.34375-17.683593 23.160156v5.457031c.003906 12.226563 9.199219 22.496094 21.355469 23.847657l18.644531 2.070312v31.511719l-6.589844 1.878906c-10.402344 3.054688-17.511719 12.640625-17.410156 23.480469-.078125 10.117187 6.277343 19.171875 15.816406 22.539063l8.183594 3.476562v17.511719c0 4.421875 3.582031 8 8 8 4.421875 0 8-3.578125 8-8v-10.703125l4.875 2.066406c.988281.425781 2.050781.640625 3.125.636719 3.800781 0 7.074219-2.679688 7.832031-6.402344.761719-3.722656-1.207031-7.464844-4.703125-8.957031l-11.128906-4.71875v-28.71875l14.59375-4.167969c10.292969-2.980469 17.382812-12.390625 17.40625-23.105469v-5.601562c0-12.226563-9.195313-22.496094-21.351563-23.847656l-10.648437-1.191407v-34.085937l30.320312-8.265625c10.429688-2.867188 17.664063-12.34375 17.679688-23.160157v-3.777343c0-13.253907-10.742188-24-24-24zm-32-40c4.421875 0 8 3.582031 8 8 0 4.421875-3.578125 8-8 8-4.417969 0-8-3.578125-8-8 0-4.417969 3.582031-8 8-8zm-8 213.128906-2.527344-1.070313c-3.386719-1.167968-5.609375-4.417968-5.472656-8 0-3.574218 2.371093-6.71875 5.808593-7.695312l2.191407-.609375zm24.882812-62.726563c4.050781.449219 7.121094 3.875 7.117188 7.953126v5.597656c.003906 3.574218-2.367188 6.71875-5.804688 7.695312l-10.195312 2.890625v-25.152343zm-24.882812-18.886718-16.878907-1.914063c-4.039062-.445312-7.101562-3.855469-7.121093-7.917969v-5.457031c0-3.609375 2.417969-6.773437 5.898437-7.722656l18.101563-4.933594zm48-63.738282c.003906 3.609376-2.414063 6.769532-5.894531 7.71875l-26.105469 7.121094v-26.617187h24c4.421875 0 8 3.582031 8 8zm0 0" fill="#ebf0f6"/></g></svg>