<svg height="480pt" viewBox="0 -28 480 480" width="480pt" xmlns="http://www.w3.org/2000/svg"><g fill="#9bc9ff"><path d="m456 80h-432c-8.824219.027344-15.972656 7.175781-16 16v272c.027344 8.824219 7.175781 15.972656 16 16h432c8.824219-.027344 15.972656-7.175781 16-16v-272c-.027344-8.824219-7.175781-15.972656-16-16zm-216 272c-66.273438 0-120-53.726562-120-120s53.726562-120 120-120 120 53.726562 120 120-53.726562 120-120 120zm0 0"/><path d="m40 400c0 8.835938 7.164062 16 16 16h32c8.835938 0 16-7.164062 16-16v-16h-64zm0 0"/><path d="m96 69.839844c-.03125-7.628906-6.210938-13.808594-13.839844-13.839844h-20.320312c-7.628906.03125-13.808594 6.210938-13.839844 13.839844v10.160156h48zm0 0"/><path d="m432 69.839844c-.03125-7.628906-6.210938-13.808594-13.839844-13.839844h-20.320312c-7.628906.03125-13.808594 6.210938-13.839844 13.839844v10.160156h48zm0 0"/><path d="m376 400c0 8.835938 7.164062 16 16 16h32c8.835938 0 16-7.164062 16-16v-16h-64zm0 0"/><path d="m160 48c.027344-8.824219 7.175781-15.972656 16-16h128c8.824219.027344 15.972656 7.175781 16 16v32h24v-40c0-17.671875-14.328125-32-32-32h-144c-17.671875 0-32 14.328125-32 32v40h24zm0 0"/><path d="m256 168h-32v48h-48v32h48v48h32v-48h48v-32h-48zm0 0"/></g><path d="m456 72h-16v-2.160156c-.019531-12.054688-9.785156-21.820313-21.839844-21.839844h-20.320312c-12.054688.019531-21.820313 9.785156-21.839844 21.839844v2.160156h-24v-32c-.027344-22.082031-17.917969-39.9726562-40-40h-144c-22.082031.0273438-39.972656 17.917969-40 40v32h-24v-2.160156c-.019531-12.054688-9.785156-21.820313-21.839844-21.839844h-20.320312c-12.054688.019531-21.820313 9.785156-21.839844 21.839844v2.160156h-16c-13.253906 0-24 10.746094-24 24v272c0 13.253906 10.746094 24 24 24h8v8c0 13.253906 10.746094 24 24 24h32c13.253906 0 24-10.746094 24-24v-8h256v8c0 13.253906 10.746094 24 24 24h32c13.253906 0 24-10.746094 24-24v-8h8c13.253906 0 24-10.746094 24-24v-272c0-13.253906-10.746094-24-24-24zm-64-2.160156c.042969-3.207032 2.632812-5.796875 5.839844-5.839844h20.320312c3.207032.042969 5.796875 2.632812 5.839844 5.839844v2.160156h-32zm-248-29.839844c0-13.253906 10.746094-24 24-24h144c13.253906 0 24 10.746094 24 24v32h-8v-24c0-13.253906-10.746094-24-24-24h-128c-13.253906 0-24 10.746094-24 24v24h-8zm168 32h-144v-24c0-4.417969 3.582031-8 8-8h128c4.417969 0 8 3.582031 8 8zm-256-2.160156c.042969-3.207032 2.632812-5.796875 5.839844-5.839844h20.320312c3.207032.042969 5.796875 2.632812 5.839844 5.839844v2.160156h-32zm40 330.160156c0 4.417969-3.582031 8-8 8h-32c-4.417969 0-8-3.582031-8-8v-8h48zm336 0c0 4.417969-3.582031 8-8 8h-32c-4.417969 0-8-3.582031-8-8v-8h48zm32-32c0 4.417969-3.582031 8-8 8h-432c-4.417969 0-8-3.582031-8-8v-272c0-4.417969 3.582031-8 8-8h432c4.417969 0 8 3.582031 8 8zm0 0" fill="#1e81ce"/><path d="m240 104c-70.691406 0-128 57.308594-128 128s57.308594 128 128 128 128-57.308594 128-128c-.082031-70.65625-57.34375-127.917969-128-128zm0 240c-61.855469 0-112-50.144531-112-112s50.144531-112 112-112 112 50.144531 112 112c-.066406 61.828125-50.171875 111.933594-112 112zm0 0" fill="#1e81ce"/><path d="m264 160h-48v48h-48v48h48v48h48v-48h48v-48h-48zm32 64v16h-48v48h-16v-48h-48v-16h48v-48h16v48zm0 0" fill="#1e81ce"/></svg>