<svg height="480pt" viewBox="0 0 480.01586 480" width="480pt" xmlns="http://www.w3.org/2000/svg"><g fill="#9bc9ff"><path d="m255.28125 96.007812h-30.558594c-4.371094-.003906-8.554687 1.78125-11.578125 4.9375-3.019531 3.160157-4.621093 7.414063-4.421875 11.78125l.320313 7.28125 4.078125 96 1.679687 40 2.402344 56.617188.320313 7.382812 2.078124 48 1.054688 25.128907 2.707031 64.472656c.671875 8.28125 7.691407 14.601563 16 14.398437h1.277344c8.308594.203126 15.328125-6.117187 16-14.398437l3.015625-71.785156.746094-17.816407 2.078125-48 .609375-14.265624 2.113281-49.734376 1.679687-40 4.078126-96 .320312-7.28125c.199219-4.367187-1.402344-8.621093-4.421875-11.78125-3.023437-3.15625-7.207031-4.941406-11.578125-4.9375zm0 0"/><path d="m272 40.007812c0 17.671876-14.324219 32-32 32-17.671875 0-32-14.328124-32-32 0-17.671874 14.328125-32 32-32 17.675781 0 32 14.328126 32 32zm0 0"/><path d="m40 152.007812h146.402344l-1.359375-32h-177.042969l1.921875 7.761719c3.515625 13.871094 15.777344 23.75 30.078125 24.238281zm0 0"/><path d="m293.601562 152.007812h146.398438c14.304688-.488281 26.566406-10.367187 30.082031-24.238281l1.917969-7.761719h-177.039062zm0 0"/><path d="m41.921875 159.769531c3.582031 14.226563 16.367187 24.210938 31.039063 24.238281h114.800781l-1.359375-32h-146.402344zm0 0"/><path d="m292.242188 184.007812h114.800781c14.671875-.027343 27.457031-10.011718 31.039062-24.238281l1.917969-7.761719h-146.398438zm0 0"/><path d="m81.921875 191.769531c3.601563 14.238281 32.398437 24.238281 47.039063 24.238281h60.160156l-1.359375-32h-107.761719zm0 0"/><path d="m290.882812 216.007812h68.160157c14.671875-.027343 27.457031-10.011718 31.039062-24.238281l1.917969-7.761719h-99.757812zm0 0"/></g><path d="m240 80.007812c22.09375 0 40-17.910156 40-40 0-22.089843-17.90625-39.9999995-40-39.9999995-22.089844 0-40 17.9101565-40 39.9999995.027344 22.082032 17.921875 39.972657 40 40zm0-64c13.257812 0 24 10.746094 24 24 0 13.253907-10.742188 24-24 24-13.253906 0-24-10.746093-24-24 0-13.253906 10.746094-24 24-24zm0 0" fill="#1e81ce"/><path d="m478.304688 115.078125c-1.515626-1.9375-3.839844-3.070313-6.304688-3.070313h-177.039062c-4.289063-.003906-7.820313 3.378907-8 7.664063l-4.078126 96c-.09375 2.179687.710938 4.300781 2.21875 5.875 1.511719 1.574219 3.597657 2.464844 5.78125 2.460937h68.160157c18.359375-.003906 34.355469-12.507812 38.800781-30.320312l.414062-1.679688h8.800782c18.359375-.003906 34.355468-12.507812 38.800781-30.320312l.597656-2.398438c15.304688-2.972656 27.53125-14.496093 31.402344-29.601562l1.925781-7.757812c.585938-2.390626.039063-4.914063-1.480468-6.851563zm-119.261719 92.929687h-59.839844l.6875-16h81.765625c-3.386719 9.585938-12.449219 15.996094-22.613281 16zm48-32h-106.449219l.679688-16h128.382812c-3.386719 9.585938-12.449219 15.996094-22.613281 16zm32.957031-32h-138.046875l.679687-16h159.023438c-3.308594 9.226563-11.859375 15.546876-21.65625 16zm0 0" fill="#1e81ce"/><path d="m194.898438 221.542969c1.507812-1.574219 2.308593-3.695313 2.214843-5.871094l-4.078125-96c-.179687-4.285156-3.710937-7.667969-8-7.664063h-177.035156c-2.457031 0-4.78125 1.132813-6.296875 3.066407-1.519531 1.9375-2.058594 4.464843-1.46875 6.855469l1.933594 7.796874c3.886719 15.078126 16.101562 26.570313 31.386719 29.53125l.613281 2.46875c4.460937 17.796876 20.449219 30.277344 38.792969 30.28125h.800781l.433593 1.71875c4.917969 19.59375 38.765626 30.28125 54.765626 30.28125h60.160156c2.179687 0 4.269531-.890624 5.777344-2.464843zm-176.550782-93.535157h159.023438l.679687 16h-137.816406c-9.871094-.382812-18.527344-6.710937-21.886719-16zm32 32h128.382813l.679687 16h-106.449218c-10.164063-.003906-19.226563-6.414062-22.613282-16zm78.613282 48c-12.527344 0-33.230469-8.167968-38.289063-16h89.417969l.6875 16zm0 0" fill="#1e81ce"/><path d="m312 240.007812h-24v16h24c4.421875 0 8 3.582032 8 8v18.222657c0 3.960937-2.898438 7.328125-6.8125 7.914062l-41.699219 6.246094 7.785157-183.3125c.289062-6.546875-2.109376-12.925781-6.640626-17.660156-4.535156-4.734375-10.804687-7.410157-17.359374-7.402344h-30.550782c-6.554687-.007813-12.828125 2.667969-17.363281 7.40625-4.53125 4.734375-6.929687 11.117187-6.636719 17.667969l8.183594 192.703125-28.472656 4.269531c-11.773438 1.707031-20.492188 11.824219-20.433594 23.722656v18.222656c0 13.253907 10.746094 24 24 24h16v-16h-16c-4.417969 0-8-3.582031-8-8v-18.222656c0-3.960937 2.898438-7.328125 6.816406-7.914062l26.777344-4 2.742188 64.703125-16.796876 3.136719c-11.332031 2.144531-19.535156 12.046874-19.539062 23.578124v18.71875c0 13.253907 10.746094 24 24 24h8v-16h-8c-4.417969 0-8-3.582031-8-8v-18.71875c0-3.847656 2.738281-7.152343 6.523438-7.863281l14.503906-2.722656 2.34375 55.304687c.851562 12.5625 11.410156 22.242188 24 22h1.277344c12.609374.238282 23.179687-9.480468 24-22.0625l2.777343-65.441406 33.015625-6.183594c11.347656-2.136718 19.5625-12.046874 19.558594-23.59375v-18.71875c0-13.253906-10.742188-24-24-24h-16v16h16c4.421875 0 8 3.582032 8 8v18.71875c.003906 3.851563-2.734375 7.152344-6.519531 7.867188l-29.375 5.503906 2.695312-63.425781 44.761719-6.710937c11.777344-1.703126 20.5-11.828126 20.4375-23.730469v-18.222657c0-13.253906-10.742188-24-24-24zm-95.285156-127.632812c-.101563-2.183594.695312-4.316406 2.207031-5.894531 1.511719-1.582031 3.605469-2.476563 5.792969-2.472657h30.558594c2.1875-.003906 4.28125.890626 5.792968 2.472657 1.511719 1.578125 2.308594 3.710937 2.207032 5.894531l-7.910157 186.441406-30.5625 4.582032zm31.941406 344.800781c-.488281 4.003907-3.96875 6.964844-8 6.800781h-1.277344c-4.011718.171876-7.488281-2.753906-8-6.738281l-2.402344-57.542969 22.359376-4.191406zm3.3125-78.078125-23.742188 4.445313-2.722656-64.101563 29.1875-4.378906zm0 0" fill="#1e81ce"/><path d="m192 304.007812v-16h-24c-4.417969 0-8-3.582031-8-8v-16c0-4.417968 3.582031-8 8-8h24v-16h-24c-13.253906 0-24 10.746094-24 24v16c0 13.253907 10.746094 24 24 24zm0 0" fill="#1e81ce"/><path d="m280 400.007812h-8v16h8c4.421875 0 8 3.582032 8 8v8c0 4.417969-3.578125 8-8 8h-8v16h8c13.257812 0 24-10.746093 24-24v-8c0-13.253906-10.742188-24-24-24zm0 0" fill="#1e81ce"/></svg>