<svg height="480pt" viewBox="-96 0 480 480" width="480pt" xmlns="http://www.w3.org/2000/svg"><path d="m280 472v-464h-48v464zm0 0" fill="#9bc9ff"/><path d="m16 152h-8v96c0 17.671875 14.328125 32 32 32h24v16c.027344 8.824219 7.175781 15.972656 16 16h16c8.824219-.027344 15.972656-7.175781 16-16v-16h24c17.671875 0 32-14.328125 32-32v-96zm0 0" fill="#9bc9ff"/><path d="m224 0v16h-136c-4.417969 0-8 3.582031-8 8v24h-72c-4.417969 0-8 3.582031-8 8v192c.0273438 22.082031 17.917969 39.972656 40 40h16v8c0 13.253906 10.746094 24 24 24v32h16v-32c13.253906 0 24-10.746094 24-24v-8h16c22.082031-.027344 39.972656-17.917969 40-40v-192c0-4.417969-3.582031-8-8-8h-72v-16h128v448h64v-480zm-64 248c0 13.253906-10.746094 24-24 24h-24c-4.417969 0-8 3.582031-8 8v16c0 4.417969-3.582031 8-8 8h-16c-4.417969 0-8-3.582031-8-8v-16c0-4.417969-3.582031-8-8-8h-24c-10.132812-.042969-19.148438-6.445312-22.527344-16h46.527344v-16h-48v-16h32v-16h-32v-16h48v-16h-48v-16h144zm0-184v80h-144v-16h48v-16h-48v-16h32v-16h-32v-16zm112 400h-32v-448h32zm0 0" fill="#1e81ce"/></svg>