<svg height="480pt" viewBox="-52 0 480 480.0401" width="480pt" xmlns="http://www.w3.org/2000/svg"><g fill="transparent"><path d="m211.78125 344.039062c19.273438.695313 35.476562-14.328124 36.238281-33.597656v-70.402344h-240v70.402344c.765625 19.269532 16.96875 34.292969 36.242188 33.597656zm0 0"/><path d="m248.019531 73.640625c-.761719-19.269531-16.964843-34.292969-36.238281-33.601563h-167.519531c-19.273438-.691406-35.476563 14.332032-36.242188 33.601563v38.398437h240zm0 0"/><path d="m150.660156 17.398438c-9.152344-9.160157-22.925781-11.902344-34.890625-6.945313-11.964843 4.957031-19.757812 16.636719-19.75 29.585937h64c-.015625-8.484374-3.378906-16.621093-9.359375-22.640624zm0 0"/><path d="m168.019531 360.039062v-16h-80v16c.027344 8.828126 7.175781 15.976563 16 16h48c8.824219-.023437 15.972657-7.171874 16-16zm0 0"/><path d="m336.019531 288.039062h32v-48h-32zm0 0"/></g><path d="m80.019531 152.039062h-16v-16h-16v16h-16v16h16v16h16v-16h16zm0 0" fill="#ebf0f6"/><path d="m360.019531 232.039062v-112c0-22.089843-17.90625-40-40-40-22.089843 0-40 17.910157-40 40v280c0 35.347657-28.652343 64-64 64-35.347656 0-64-28.652343-64-64v-16c13.253907 0 24-10.742187 24-24v-8h35.761719c23.683594.683594 43.464844-17.914062 44.238281-41.597656v-236.800781c-.773437-23.683594-20.554687-42.28125-44.238281-41.601563h-44.5625c-3.785156-18.640624-20.175781-32.039062-39.199219-32.039062-19.023437 0-35.414062 13.398438-39.199219 32.039062h-44.558593c-23.6875-.679687-43.46875 17.917969-44.2421878 41.601563v236.800781c.7734378 23.683594 20.5546878 42.28125 44.2421878 41.597656h35.757812v8c0 13.257813 10.746094 24 24 24v96h16v-96h16v16c0 44.183594 35.816407 80 80 80 44.183594 0 80-35.816406 80-80v-280c0-13.253906 10.746094-24 24-24 13.253907 0 24 10.746094 24 24v112h-16v64h16v32h16v-32h16v-64zm-249.023437-208.941406c9.507812-9.039062 24.417968-9.074218 33.96875-.082031 2.535156 2.554687 4.472656 5.636719 5.679687 9.023437h-45.257812c1.191406-3.355468 3.105469-6.410156 5.609375-8.941406zm-94.976563 50.542969c.78125-14.84375 13.390625-26.277344 28.242188-25.601563h167.519531c14.847656-.675781 27.457031 10.757813 28.238281 25.601563v30.398437h-224zm0 46.398437h224v112h-224zm28.242188 216c-14.851563.675782-27.460938-10.753906-28.242188-25.597656v-62.402344h224v62.402344c-.78125 14.84375-13.390625 26.273438-28.238281 25.597656zm59.757812 32c-4.417969 0-8-3.582031-8-8v-8h64v8c0 4.417969-3.582031 8-8 8zm256-88h-16v-32h16zm0 0" fill="#ebf0f6"/></svg>