<svg height="480pt" viewBox="0 0 480 480" width="480pt" xmlns="http://www.w3.org/2000/svg"><path d="m16 232h152v16h-152v112c0 57.4375 46.5625 104 104 104s104-46.5625 104-104v-112h-40v-16zm176 128h16c-.011719 23.371094-9.3125 45.777344-25.855469 62.285156-16.546875 16.507813-38.972656 25.757813-62.34375 25.714844-4.359375-.003906-8.710937-.324219-13.023437-.960938-43.585938-7.394531-75.304688-45.410156-74.777344-89.613281v-77.425781h16v77.425781c-.554688 36.273438 25.359375 67.5625 61.105469 73.773438 20.753906 3.140625 41.84375-2.921875 57.769531-16.597657 15.921875-13.675781 25.09375-33.609374 25.125-54.601562zm16-160h-16v-78.398438c.515625-33.925781-22.320312-63.769531-55.199219-72.136718-21.523437-5.0625-44.175781.007812-61.488281 13.757812-17.308594 13.75-27.375 34.667969-27.3125 56.777344h-16c-.070312-26.023438 11.34375-50.753906 31.195312-67.582031 19.847657-16.828125 46.109376-24.046875 71.773438-19.722657 42.757812 8.023438 73.566406 45.617188 73.03125 89.121094zm0 0" fill="#78b9eb"/><g fill="#1a6fb0"><path d="m167 414.496094c-15.886719 13.839844-37.078125 19.953125-57.894531 16.703125-35.746094-6.210938-61.660157-37.5-61.105469-73.773438v-77.425781h-16v77.425781c-.519531 44.195313 31.199219 82.203125 74.777344 89.597657 4.3125.636718 8.664062.957031 13.023437.960937 23.367188.042969 45.792969-9.207031 62.335938-25.710937 16.542969-16.503907 25.847656-38.90625 25.863281-62.273438h-16c-.015625 20.9375-9.140625 40.828125-25 54.496094zm0 0"/><path d="m134.96875 32.695312c-25.664062-4.324218-51.925781 2.894532-71.773438 19.722657-19.851562 16.828125-31.265624 41.558593-31.195312 67.582031h16c-.0625-22.109375 10.003906-43.027344 27.3125-56.777344 17.3125-13.75 39.964844-18.820312 61.488281-13.757812 32.878907 8.367187 55.714844 38.210937 55.199219 72.136718v78.398438h16v-78.183594c.535156-43.503906-30.273438-81.097656-73.03125-89.121094zm0 0"/><path d="m442.503906 149.496094c-28.402344-28.519532-68.589844-41.984375-108.445312-36.332032-39.851563 5.65625-74.707032 29.765626-94.058594 65.058594v-58.222656c0-66.273438-53.726562-120-120-120s-120 53.726562-120 120v240c0 66.273438 53.726562 120 120 120s120-53.726562 120-120v-58.222656c24.160156 43.808594 71.640625 69.519531 121.535156 65.808594 49.894532-3.710938 93.046875-36.160157 110.460938-83.0625 17.414062-46.90625 5.890625-99.65625-29.492188-135.027344zm-218.503906 82.503906h-40v16h40v112c0 57.4375-46.5625 104-104 104s-104-46.5625-104-104v-112h152v-16h-152v-112c0-57.4375 46.5625-104 104-104s104 46.5625 104 104zm48.800781-71.199219c41.535157-41.507812 108.085938-43.855469 152.4375-5.375l-73.238281 73.261719 11.3125 11.3125 50.609375-50.609375c25.8125 31.820313 23.414063 78-5.558594 106.972656-28.972656 28.972657-75.152343 31.371094-106.972656 5.558594l50.609375-50.609375-11.3125-11.3125-73.253906 73.257812c-38.414063-44.382812-36.074219-110.886718 5.367187-152.457031zm158.398438 158.398438c-41.566407 41.433593-108.058594 43.777343-152.4375 5.375l11.328125-11.335938c38.066406 32.292969 94.539062 29.976563 129.832031-5.324219 35.296875-35.296874 37.605469-91.769531 5.308594-129.835937l11.335937-11.335937c38.414063 44.382812 36.074219 110.886718-5.367187 152.457031zm0 0"/></g></svg>