<svg height="480pt" viewBox="0 -60 480 480" width="480pt" xmlns="http://www.w3.org/2000/svg"><path d="m472 208v-144h-320v144zm-208-88h32v-24h32v24h32v32h-32v24h-32v-24h-32zm0 0" fill="#9bc9ff"/><path d="m112 80h-64l-12 88-28 8v16h32v32h-32v64h32c0-22.089844 17.910156-40 40-40s40 17.910156 40 40h32v-208zm-43.519531 72 6.640625-40h44.878906v40zm0 0" fill="#9bc9ff"/><path d="m152 208v80h160c0-22.089844 17.910156-40 40-40s40 17.910156 40 40h80v-80zm0 0" fill="#9bc9ff"/><path d="m112 64c0-8.835938-7.164062-16-16-16s-16 7.164062-16 16v16h32zm0 0" fill="#9bc9ff"/><g fill="#1e81ce"><path d="m48 344h160v16h-160zm0 0"/><path d="m448 344h32v16h-32zm0 0"/><path d="m0 344h32v16h-32zm0 0"/><path d="m272 344h160v16h-160zm0 0"/><path d="m224 344h32v16h-32zm0 0"/><path d="m88 0h16v32h-16zm0 0"/><path d="m45.085938 24.40625 11.308593-11.316406 22.632813 22.625-11.3125 11.3125zm0 0"/><path d="m112.976562 35.710938 22.625-22.628907 11.3125 11.3125-22.625 22.628907zm0 0"/><path d="m472 56h-320c-4.417969 0-8 3.582031-8 8v8h-24v-8c0-13.253906-10.746094-24-24-24s-24 10.746094-24 24v8h-24c-4 0-7.386719 2.957031-7.929688 6.921875l-11.269531 82.820313-22.976562 6.570312c-3.441407.972656-5.82031275 4.109375-5.824219 7.6875v112c0 4.417969 3.582031 8 8 8h24.71875c3.882812 23.085938 23.871094 39.992188 47.28125 39.992188s43.398438-16.90625 47.28125-39.992188h177.4375c3.882812 23.085938 23.871094 39.992188 47.28125 39.992188s43.398438-16.90625 47.28125-39.992188h72.71875c4.417969 0 8-3.582031 8-8v-224c0-4.417969-3.582031-8-8-8zm-88.457031 195.910156c-.214844-.191406-.40625-.390625-.621094-.566406-1.871094-1.566406-3.859375-2.988281-5.945313-4.253906-.351562-.21875-.695312-.433594-1.054687-.640625-2.09375-1.210938-4.273437-2.257813-6.523437-3.136719l-1.191407-.441406c-2.34375-.847656-4.75-1.515625-7.199219-1.992188-.320312-.0625-.640624-.09375-.960937-.152344-5.324219-.96875-10.785156-.96875-16.109375 0-.320312.058594-.640625.089844-.960938.152344-2.449218.476563-4.855468 1.144532-7.199218 1.992188l-1.191406.441406c-2.25.878906-4.429688 1.925781-6.523438 3.136719-.359375.207031-.703125.421875-1.054688.640625-2.085937 1.265625-4.074218 2.6875-5.945312 4.253906-.214844.175781-.40625.375-.621094.566406-1.457031 1.277344-2.832031 2.644532-4.121094 4.089844h-156.320312v-40h304v40.097656c-45.167969-.050781-65.929688-.050781-75.863281.40625-1.425781-1.628906-2.960938-3.164062-4.59375-4.59375zm-223.542969-179.910156h304v128h-304zm-72-8c0-4.417969 3.582031-8 8-8s8 3.582031 8 8v8h-16zm-72 136h16v16h-16zm32 32v-48h-32v-1.96875l22.191406-6.34375c3.054688-.867188 5.304688-3.460938 5.738282-6.609375l11.054687-81.078125h89.015625v192h-16.664062c0-.183594-.105469-.351562-.144532-.535156-.4375-2.410156-1.054687-4.78125-1.855468-7.097656-.144532-.414063-.304688-.800782-.457032-1.246094-.851562-2.273438-1.871094-4.480469-3.054687-6.601563-.175781-.304687-.367188-.589843-.542969-.894531-1.273438-2.175781-2.714844-4.25-4.3125-6.199219l-.136719-.152343c-1.617187-1.925782-3.386719-3.714844-5.289062-5.363282-.214844-.191406-.40625-.390625-.621094-.566406-1.871094-1.566406-3.859375-2.988281-5.945313-4.253906-.351562-.21875-.695312-.433594-1.054687-.640625-2.09375-1.210938-4.273437-2.257813-6.523437-3.136719l-1.191407-.441406c-2.34375-.847656-4.75-1.515625-7.199219-1.992188-.320312-.0625-.640624-.09375-.960937-.152344-5.324219-.96875-10.785156-.96875-16.109375 0-.320312.058594-.640625.089844-.960938.152344-2.449218.476563-4.855468 1.144532-7.199218 1.992188l-1.191406.441406c-2.25.878906-4.429688 1.925781-6.523438 3.136719-.359375.207031-.703125.421875-1.054688.640625-2.085937 1.265625-4.074218 2.6875-5.945312 4.253906-.214844.175781-.40625.375-.621094.566406-1.457031 1.277344-2.832031 2.644532-4.121094 4.089844h-28.320312v-24zm-32 40h18.761719c0 .121094-.058594.246094-.097657.367188-.800781 2.316406-1.417968 4.6875-1.855468 7.097656 0 .183594-.113282.351562-.144532.535156h-16.664062zm64 48c-17.671875 0-32-14.328125-32-32s14.328125-32 32-32 32 14.328125 32 32-14.328125 32-32 32zm80-48h146.761719c0 .121094-.058594.246094-.097657.367188-.800781 2.316406-1.417968 4.6875-1.855468 7.097656-.039063.183594-.113282.351562-.144532.535156h-144.664062zm192 48c-17.671875 0-32-14.328125-32-32s14.328125-32 32-32 32 14.328125 32 32-14.328125 32-32 32zm47.335938-40c0-.183594-.105469-.351562-.144532-.535156-.4375-2.410156-1.054687-4.78125-1.855468-7.097656 0-.09375-.046876-.207032-.078126-.304688h66.742188v7.9375zm0 0"/><path d="m128 104h-59.664062l-9.296876 56h68.960938zm-16 40h-34.089844l4-24h30.089844zm0 0"/><path d="m96 168h32v16h-32zm0 0"/><path d="m352 264c-13.253906 0-24 10.746094-24 24s10.746094 24 24 24 24-10.746094 24-24-10.746094-24-24-24zm0 32c-4.417969 0-8-3.582031-8-8s3.582031-8 8-8 8 3.582031 8 8-3.582031 8-8 8zm0 0"/><path d="m80 264c-13.253906 0-24 10.746094-24 24s10.746094 24 24 24 24-10.746094 24-24-10.746094-24-24-24zm0 32c-4.417969 0-8-3.582031-8-8s3.582031-8 8-8 8 3.582031 8 8-3.582031 8-8 8zm0 0"/><path d="m288 184h48v-24h24v-48h-24v-24h-48v24h-24v48h24zm-8-40v-16h24v-24h16v24h24v16h-24v24h-16v-24zm0 0"/></g></svg>