<svg height="468pt" viewBox="0 -36 468 467" width="468pt" xmlns="http://www.w3.org/2000/svg"><path d="m10.394531 356h37.304688c4.992187 21.847656 23.691406 37.859375 46.046875 39.429688 1.234375.085937 2.460937.097656 3.683594.097656 12.210937.054687 24.027343-4.332032 33.25-12.339844 8.117187-7.15625 13.816406-16.65625 16.308593-27.1875h159.058594c5.089844 22 25.398437 39.730469 49.621094 39.730469 24.222656 0 44.53125-17.730469 49.625-39.730469h32.3125c16.683593-.097656 30.210937-13.550781 30.394531-30.234375v-30.253906c0-9.957031-3.300781-34.445313-12.894531-46.613281-9.300781-11.8125-22.476563-19.960938-37.199219-23.007813l-10.023438-42.382813c-.054687-.230468-.140624-.300781-.210937-.527343-6.472656-20.910157-25.875-35.121094-47.765625-34.980469h-47.183594c-1.597656-20.835938-18.941406-36.941406-39.835937-37h-61.738281l-11.898438-35.15625c-1.371094-4.070312-5.175781-6.820312-9.472656-6.84375h-28.5c-4.296875.023438-8.101563 2.773438-9.46875 6.84375l-11.902344 35.15625h-99.511719c-22.054687 0-40.394531 18.179688-40.394531 40.234375v194.53125c.164062 5.644531 4.75 10.15625 10.394531 10.234375zm117.742188-9.179688c-1.1875 16.71875-15.5 29.433594-32.242188 28.644532-16.738281-.789063-29.792969-14.792969-29.402343-31.546875.390624-16.757813 14.078124-30.140625 30.835937-30.148438.730469 0 1.46875.023438 2.207031.078125 17.003906 1.207032 29.8125 15.96875 28.601563 32.972656zm227.53125 28.679688c-17.046875 0-30.863281-13.820312-30.863281-30.863281 0-17.046875 13.816406-30.867188 30.863281-30.867188s30.867187 13.820313 30.867187 30.867188c-.019531 17.035156-13.828125 30.84375-30.867187 30.863281zm4.238281-207.5c13.042969-.007812 24.589844 8.425781 28.546875 20.851562l8.484375 36.148438h-83.9375v-57zm-191.457031-79h14.160156l7.421875 22h-29zm-148.449219 62.234375c.179688-11.160156 9.230469-20.140625 20.394531-20.234375h232.492188c11.109375.113281 20.066406 9.128906 20.113281 20.234375v83.285156c0 5.523438 4.363281 10.480469 9.886719 10.480469h101.761719c13.507812-.132812 26.324218 5.960938 34.75 16.519531 4.65625 5.902344 8.601562 23.3125 8.601562 33.992188v30.253906c-.171875 5.640625-4.75 10.148437-10.394531 10.234375h-31.863281c-4.292969-24.292969-25.40625-41.996094-50.074219-41.996094s-45.777344 17.703125-50.074219 41.996094h-158.140625c-4.277344-24.320312-25.402344-42.054688-50.09375-42.054688s-45.820313 17.734376-50.097656 42.054688h-27.261719zm0 0"/><path d="m176 47.441406c5.523438 0 10-4.476562 10-10v-26.941406c0-5.523438-4.476562-10-10-10s-10 4.476562-10 10v26.941406c0 5.523438 4.476562 10 10 10zm0 0"/><path d="m234.363281 67.539062c2.167969 0 4.277344-.707031 6.007813-2.015624l22.066406-16.613282c4.410156-3.324218 5.292969-9.59375 1.96875-14.007812-3.324219-4.410156-9.59375-5.292969-14.007812-1.96875l-22.0625 16.617187c-3.4375 2.585938-4.835938 7.082031-3.46875 11.164063 1.367187 4.078125 5.1875 6.828125 9.492187 6.824218zm0 0"/><path d="m88.621094 48.910156 22.0625 16.613282c4.414062 3.324218 10.683594 2.441406 14.003906-1.96875 3.324219-4.414063 2.441406-10.683594-1.96875-14.003907l-22.066406-16.617187c-4.410156-3.324219-10.679688-2.441406-14.003906 1.972656-3.324219 4.410156-2.4375 10.679688 1.972656 14.003906zm0 0"/><path d="m116.226562 248h29.773438v30.03125c0 5.523438 3.988281 9.96875 9.511719 9.96875h36.976562c5.523438 0 9.511719-4.445312 9.511719-9.96875v-30.03125h29.773438c5.640624-.15625 10.152343-4.734375 10.226562-10.371094v-38.027344c0-5.523437-4.699219-9.601562-10.226562-9.601562h-29.773438v-30.804688c0-5.523437-3.988281-10.195312-9.511719-10.195312h-36.976562c-5.523438 0-9.511719 4.671875-9.511719 10.195312v30.804688h-29.773438c-5.527343 0-10.226562 4.074219-10.226562 9.601562v38.027344c.078125 5.640625 4.585938 10.214844 10.226562 10.371094zm9.773438-38h29.511719c5.695312-.148438 10.292969-4.707031 10.488281-10.398438v-30.601562h16v30.601562c.195312 5.691407 4.792969 10.25 10.488281 10.398438h29.511719v18h-29.511719c-5.523437 0-10.488281 4.101562-10.488281 9.628906v30.371094h-16v-30.371094c0-5.523437-4.964844-9.628906-10.488281-9.628906h-29.511719zm0 0"/></svg>