<svg height="480pt" viewBox="0 -104 480 480" width="480pt" xmlns="http://www.w3.org/2000/svg"><path d="m476.121094 145.144531-37.601563-22.570312-23.007812-61.382813c-1.171875-3.128906-4.167969-5.199218-7.511719-5.191406h-16v-24c0-4.417969-3.582031-8-8-8h-40c-4.417969 0-8 3.582031-8 8v24h-16v-48c0-4.417969-3.582031-8-8-8h-304c-4.417969 0-8 3.582031-8 8v216c0 4.417969 3.582031 8 8 8h56.71875c3.882812 23.085938 23.871094 39.992188 47.28125 39.992188s43.398438-16.90625 47.28125-39.992188h185.4375c3.882812 23.085938 23.871094 39.992188 47.28125 39.992188s43.398438-16.90625 47.28125-39.992188h32.71875c4.417969 0 8-3.582031 8-8v-72c0-2.808594-1.472656-5.410156-3.878906-6.855469zm-55.664063-25.144531h-60.457031v-48h42.457031zm-68.457031-80h24v16h-24zm-336-24h288v200h-144.71875c-3.882812-23.085938-23.871094-39.992188-47.28125-39.992188s-43.398438 16.90625-47.28125 39.992188h-48.71875zm96 240c-17.671875 0-32-14.328125-32-32s14.328125-32 32-32 32 14.328125 32 32-14.328125 32-32 32zm280 0c-17.671875 0-32-14.328125-32-32s14.328125-32 32-32 32 14.328125 32 32-14.328125 32-32 32zm72-40h-24.71875c-3.882812-23.085938-23.871094-39.992188-47.28125-39.992188s-43.398438 16.90625-47.28125 39.992188h-24.71875v-144h24v56c0 4.417969 3.582031 8 8 8h77.785156l34.214844 20.527344zm0 0" fill="red"/><path d="m112 120h24v24c0 4.417969 3.582031 8 8 8h32c4.417969 0 8-3.582031 8-8v-24h24c4.417969 0 8-3.582031 8-8v-32c0-4.417969-3.582031-8-8-8h-24v-24c0-4.417969-3.582031-8-8-8h-32c-4.417969 0-8 3.582031-8 8v24h-24c-4.417969 0-8 3.582031-8 8v32c0 4.417969 3.582031 8 8 8zm8-32h24c4.417969 0 8-3.582031 8-8v-24h16v24c0 4.417969 3.582031 8 8 8h24v16h-24c-4.417969 0-8 3.582031-8 8v24h-16v-24c0-4.417969-3.582031-8-8-8h-24zm0 0" fill="red"/></svg>